<mxfile host="app.diagrams.net" modified="2022-01-20T05:48:20.812Z" agent="5.0 (Windows NT 10.0; Win64; x64) AppleWebKit/537.36 (KHTML, like Gecko) Chrome/97.0.4692.71 Safari/537.36" etag="rDGTriB4PBWT_A2Yl-m8" version="16.4.2" type="github">
  <diagram id="Ynvbf1HEvrmVlT8rh1Qx" name="Page-1">
    <mxGraphModel dx="2942" dy="1160" grid="1" gridSize="10" guides="1" tooltips="1" connect="1" arrows="1" fold="1" page="1" pageScale="1" pageWidth="827" pageHeight="1169" background="#DAD2D8" math="0" shadow="0">
      <root>
        <mxCell id="0" />
        <mxCell id="1" parent="0" />
        <mxCell id="kYSBQ5DufWiclOGldfe4-1" value="" style="rounded=0;whiteSpace=wrap;html=1;fillColor=#FAE5C7;strokeColor=#0F8B8D;fontColor=#143642;" parent="1" vertex="1">
          <mxGeometry x="240" y="115" width="320" height="940" as="geometry" />
        </mxCell>
        <mxCell id="kYSBQ5DufWiclOGldfe4-2" value="&lt;font style=&quot;font-size: 20px&quot;&gt;chat with customers&lt;/font&gt;" style="ellipse;whiteSpace=wrap;html=1;fillColor=#FAE5C7;strokeColor=#0F8B8D;fontColor=#143642;" vertex="1" parent="1">
          <mxGeometry x="340" y="370" width="120" height="80" as="geometry" />
        </mxCell>
        <mxCell id="kYSBQ5DufWiclOGldfe4-3" value="&lt;font style=&quot;font-size: 18px&quot;&gt;create tour registration form&lt;/font&gt;" style="ellipse;whiteSpace=wrap;html=1;fillColor=#FAE5C7;strokeColor=#0F8B8D;fontColor=#143642;" vertex="1" parent="1">
          <mxGeometry x="340" y="470" width="120" height="80" as="geometry" />
        </mxCell>
        <mxCell id="kYSBQ5DufWiclOGldfe4-4" value="&lt;font style=&quot;font-size: 19px&quot;&gt;Update tour information&lt;/font&gt;" style="ellipse;whiteSpace=wrap;html=1;fillColor=#FAE5C7;strokeColor=#0F8B8D;fontColor=#143642;" vertex="1" parent="1">
          <mxGeometry x="340" y="560" width="120" height="80" as="geometry" />
        </mxCell>
        <mxCell id="kYSBQ5DufWiclOGldfe4-5" value="&lt;font style=&quot;font-size: 19px&quot;&gt;Sign up for a tour&lt;/font&gt;" style="ellipse;whiteSpace=wrap;html=1;fillColor=#FAE5C7;strokeColor=#0F8B8D;fontColor=#143642;" vertex="1" parent="1">
          <mxGeometry x="340" y="660" width="120" height="80" as="geometry" />
        </mxCell>
        <mxCell id="kYSBQ5DufWiclOGldfe4-6" value="&lt;font style=&quot;font-size: 20px&quot;&gt;E-Tour&lt;/font&gt;" style="ellipse;whiteSpace=wrap;html=1;fillColor=#FAE5C7;strokeColor=#0F8B8D;fontColor=#143642;" vertex="1" parent="1">
          <mxGeometry x="707" y="560" width="120" height="80" as="geometry" />
        </mxCell>
        <mxCell id="kYSBQ5DufWiclOGldfe4-7" value="&lt;span style=&quot;font-size: 20px&quot;&gt;Employee&lt;/span&gt;" style="ellipse;whiteSpace=wrap;html=1;fillColor=#FAE5C7;strokeColor=#0F8B8D;fontColor=#143642;" vertex="1" parent="1">
          <mxGeometry x="30" y="270" width="120" height="80" as="geometry" />
        </mxCell>
        <mxCell id="kYSBQ5DufWiclOGldfe4-8" value="&lt;font style=&quot;font-size: 20px&quot;&gt;Customer&lt;/font&gt;" style="ellipse;whiteSpace=wrap;html=1;fillColor=#FAE5C7;strokeColor=#0F8B8D;fontColor=#143642;" vertex="1" parent="1">
          <mxGeometry x="40" y="780" width="120" height="80" as="geometry" />
        </mxCell>
        <mxCell id="kYSBQ5DufWiclOGldfe4-9" value="&lt;font style=&quot;font-size: 20px&quot;&gt;Payment&lt;/font&gt;" style="ellipse;whiteSpace=wrap;html=1;fillColor=#FAE5C7;strokeColor=#0F8B8D;fontColor=#143642;" vertex="1" parent="1">
          <mxGeometry x="340" y="760" width="120" height="80" as="geometry" />
        </mxCell>
        <mxCell id="kYSBQ5DufWiclOGldfe4-10" value="&lt;font style=&quot;font-size: 20px&quot;&gt;View tour information&lt;/font&gt;" style="ellipse;whiteSpace=wrap;html=1;fillColor=#FAE5C7;strokeColor=#0F8B8D;fontColor=#143642;" vertex="1" parent="1">
          <mxGeometry x="340" y="860" width="120" height="80" as="geometry" />
        </mxCell>
        <mxCell id="kYSBQ5DufWiclOGldfe4-11" value="&lt;font style=&quot;font-size: 16px&quot;&gt;Employee information management&lt;/font&gt;" style="ellipse;whiteSpace=wrap;html=1;fillColor=#FAE5C7;strokeColor=#0F8B8D;fontColor=#143642;" vertex="1" parent="1">
          <mxGeometry x="340" y="960" width="120" height="80" as="geometry" />
        </mxCell>
        <mxCell id="kYSBQ5DufWiclOGldfe4-12" value="&lt;font style=&quot;font-size: 20px&quot;&gt;login&lt;/font&gt;" style="ellipse;whiteSpace=wrap;html=1;fillColor=#FAE5C7;strokeColor=#0F8B8D;fontColor=#143642;" vertex="1" parent="1">
          <mxGeometry x="340" y="170" width="120" height="80" as="geometry" />
        </mxCell>
        <mxCell id="kYSBQ5DufWiclOGldfe4-13" value="&lt;font style=&quot;font-size: 15px&quot;&gt;Customer Information Management&lt;/font&gt;" style="ellipse;whiteSpace=wrap;html=1;fillColor=#FAE5C7;strokeColor=#0F8B8D;fontColor=#143642;" vertex="1" parent="1">
          <mxGeometry x="340" y="270" width="120" height="80" as="geometry" />
        </mxCell>
        <mxCell id="kYSBQ5DufWiclOGldfe4-14" value="" style="endArrow=none;html=1;rounded=0;fontSize=20;entryX=0;entryY=0.5;entryDx=0;entryDy=0;labelBackgroundColor=#DAD2D8;strokeColor=#A8201A;fontColor=#143642;" edge="1" parent="1" target="kYSBQ5DufWiclOGldfe4-12">
          <mxGeometry width="50" height="50" relative="1" as="geometry">
            <mxPoint x="150" y="300" as="sourcePoint" />
            <mxPoint x="340" y="230" as="targetPoint" />
          </mxGeometry>
        </mxCell>
        <mxCell id="kYSBQ5DufWiclOGldfe4-15" value="" style="endArrow=none;html=1;rounded=0;fontSize=16;entryX=0;entryY=0.5;entryDx=0;entryDy=0;labelBackgroundColor=#DAD2D8;strokeColor=#A8201A;fontColor=#143642;" edge="1" parent="1" target="kYSBQ5DufWiclOGldfe4-13">
          <mxGeometry width="50" height="50" relative="1" as="geometry">
            <mxPoint x="150" y="300" as="sourcePoint" />
            <mxPoint x="200" y="250" as="targetPoint" />
          </mxGeometry>
        </mxCell>
        <mxCell id="kYSBQ5DufWiclOGldfe4-17" value="" style="endArrow=none;html=1;rounded=1;sketch=0;fontColor=#143642;strokeColor=#A8201A;fillColor=#FAE5C7;curved=0;entryX=0;entryY=0.5;entryDx=0;entryDy=0;" edge="1" parent="1" target="kYSBQ5DufWiclOGldfe4-2">
          <mxGeometry width="50" height="50" relative="1" as="geometry">
            <mxPoint x="150" y="300" as="sourcePoint" />
            <mxPoint x="200" y="250" as="targetPoint" />
          </mxGeometry>
        </mxCell>
        <mxCell id="kYSBQ5DufWiclOGldfe4-18" value="" style="endArrow=none;html=1;rounded=1;sketch=0;fontColor=#143642;strokeColor=#A8201A;fillColor=#FAE5C7;curved=0;entryX=0;entryY=0.5;entryDx=0;entryDy=0;" edge="1" parent="1" target="kYSBQ5DufWiclOGldfe4-3">
          <mxGeometry width="50" height="50" relative="1" as="geometry">
            <mxPoint x="150" y="300" as="sourcePoint" />
            <mxPoint x="200" y="250" as="targetPoint" />
          </mxGeometry>
        </mxCell>
        <mxCell id="kYSBQ5DufWiclOGldfe4-19" value="" style="endArrow=none;html=1;rounded=1;sketch=0;fontColor=#143642;strokeColor=#A8201A;fillColor=#FAE5C7;curved=0;entryX=0;entryY=0.5;entryDx=0;entryDy=0;" edge="1" parent="1" target="kYSBQ5DufWiclOGldfe4-4">
          <mxGeometry width="50" height="50" relative="1" as="geometry">
            <mxPoint x="150" y="300" as="sourcePoint" />
            <mxPoint x="200" y="250" as="targetPoint" />
          </mxGeometry>
        </mxCell>
        <mxCell id="kYSBQ5DufWiclOGldfe4-21" value="" style="endArrow=none;html=1;rounded=1;sketch=0;fontColor=#143642;strokeColor=#A8201A;fillColor=#FAE5C7;curved=0;entryX=0;entryY=0.5;entryDx=0;entryDy=0;" edge="1" parent="1" target="kYSBQ5DufWiclOGldfe4-5">
          <mxGeometry width="50" height="50" relative="1" as="geometry">
            <mxPoint x="160" y="820" as="sourcePoint" />
            <mxPoint x="210" y="770" as="targetPoint" />
          </mxGeometry>
        </mxCell>
        <mxCell id="kYSBQ5DufWiclOGldfe4-22" value="" style="endArrow=none;html=1;rounded=1;sketch=0;fontColor=#143642;strokeColor=#A8201A;fillColor=#FAE5C7;curved=0;entryX=0;entryY=0.5;entryDx=0;entryDy=0;" edge="1" parent="1" target="kYSBQ5DufWiclOGldfe4-9">
          <mxGeometry width="50" height="50" relative="1" as="geometry">
            <mxPoint x="160" y="820" as="sourcePoint" />
            <mxPoint x="210" y="770" as="targetPoint" />
          </mxGeometry>
        </mxCell>
        <mxCell id="kYSBQ5DufWiclOGldfe4-23" value="" style="endArrow=none;html=1;rounded=1;sketch=0;fontColor=#143642;strokeColor=#A8201A;fillColor=#FAE5C7;curved=0;entryX=0;entryY=0.5;entryDx=0;entryDy=0;" edge="1" parent="1" target="kYSBQ5DufWiclOGldfe4-10">
          <mxGeometry width="50" height="50" relative="1" as="geometry">
            <mxPoint x="160" y="820" as="sourcePoint" />
            <mxPoint x="210" y="770" as="targetPoint" />
          </mxGeometry>
        </mxCell>
        <mxCell id="kYSBQ5DufWiclOGldfe4-24" value="" style="endArrow=none;html=1;rounded=1;sketch=0;fontColor=#143642;strokeColor=#A8201A;fillColor=#FAE5C7;curved=0;exitX=1;exitY=0.5;exitDx=0;exitDy=0;" edge="1" parent="1" source="kYSBQ5DufWiclOGldfe4-11">
          <mxGeometry width="50" height="50" relative="1" as="geometry">
            <mxPoint x="657" y="650" as="sourcePoint" />
            <mxPoint x="707" y="600" as="targetPoint" />
          </mxGeometry>
        </mxCell>
        <mxCell id="kYSBQ5DufWiclOGldfe4-25" value="" style="endArrow=none;html=1;rounded=1;sketch=0;fontColor=#143642;strokeColor=#A8201A;fillColor=#FAE5C7;curved=0;exitX=1;exitY=0.5;exitDx=0;exitDy=0;" edge="1" parent="1" source="kYSBQ5DufWiclOGldfe4-10">
          <mxGeometry width="50" height="50" relative="1" as="geometry">
            <mxPoint x="657" y="650" as="sourcePoint" />
            <mxPoint x="707" y="600" as="targetPoint" />
          </mxGeometry>
        </mxCell>
        <mxCell id="kYSBQ5DufWiclOGldfe4-26" value="" style="endArrow=none;html=1;rounded=1;sketch=0;fontColor=#143642;strokeColor=#A8201A;fillColor=#FAE5C7;curved=0;exitX=1;exitY=0.5;exitDx=0;exitDy=0;" edge="1" parent="1" source="kYSBQ5DufWiclOGldfe4-9">
          <mxGeometry width="50" height="50" relative="1" as="geometry">
            <mxPoint x="657" y="650" as="sourcePoint" />
            <mxPoint x="707" y="600" as="targetPoint" />
          </mxGeometry>
        </mxCell>
        <mxCell id="kYSBQ5DufWiclOGldfe4-27" value="" style="endArrow=none;html=1;rounded=1;sketch=0;fontColor=#143642;strokeColor=#A8201A;fillColor=#FAE5C7;curved=0;exitX=1;exitY=0.5;exitDx=0;exitDy=0;" edge="1" parent="1" source="kYSBQ5DufWiclOGldfe4-5">
          <mxGeometry width="50" height="50" relative="1" as="geometry">
            <mxPoint x="657" y="650" as="sourcePoint" />
            <mxPoint x="707" y="600" as="targetPoint" />
          </mxGeometry>
        </mxCell>
        <mxCell id="kYSBQ5DufWiclOGldfe4-28" value="" style="endArrow=none;html=1;rounded=1;sketch=0;fontColor=#143642;strokeColor=#A8201A;fillColor=#FAE5C7;curved=0;entryX=0;entryY=0.5;entryDx=0;entryDy=0;exitX=1;exitY=0.5;exitDx=0;exitDy=0;" edge="1" parent="1" source="kYSBQ5DufWiclOGldfe4-4" target="kYSBQ5DufWiclOGldfe4-6">
          <mxGeometry width="50" height="50" relative="1" as="geometry">
            <mxPoint x="390" y="680" as="sourcePoint" />
            <mxPoint x="440" y="630" as="targetPoint" />
          </mxGeometry>
        </mxCell>
        <mxCell id="kYSBQ5DufWiclOGldfe4-29" value="" style="endArrow=none;html=1;rounded=1;sketch=0;fontColor=#143642;strokeColor=#A8201A;fillColor=#FAE5C7;curved=0;exitX=1;exitY=0.5;exitDx=0;exitDy=0;" edge="1" parent="1" source="kYSBQ5DufWiclOGldfe4-3">
          <mxGeometry width="50" height="50" relative="1" as="geometry">
            <mxPoint x="390" y="680" as="sourcePoint" />
            <mxPoint x="710" y="600" as="targetPoint" />
          </mxGeometry>
        </mxCell>
        <mxCell id="kYSBQ5DufWiclOGldfe4-30" value="" style="endArrow=none;html=1;rounded=1;sketch=0;fontColor=#143642;strokeColor=#A8201A;fillColor=#FAE5C7;curved=0;exitX=1;exitY=0.5;exitDx=0;exitDy=0;" edge="1" parent="1" source="kYSBQ5DufWiclOGldfe4-2">
          <mxGeometry width="50" height="50" relative="1" as="geometry">
            <mxPoint x="390" y="680" as="sourcePoint" />
            <mxPoint x="710" y="600" as="targetPoint" />
          </mxGeometry>
        </mxCell>
        <mxCell id="kYSBQ5DufWiclOGldfe4-31" value="" style="endArrow=none;html=1;rounded=1;sketch=0;fontColor=#143642;strokeColor=#A8201A;fillColor=#FAE5C7;curved=0;exitX=1;exitY=0.5;exitDx=0;exitDy=0;" edge="1" parent="1" source="kYSBQ5DufWiclOGldfe4-13">
          <mxGeometry width="50" height="50" relative="1" as="geometry">
            <mxPoint x="390" y="680" as="sourcePoint" />
            <mxPoint x="710" y="600" as="targetPoint" />
          </mxGeometry>
        </mxCell>
        <mxCell id="kYSBQ5DufWiclOGldfe4-32" value="" style="endArrow=none;html=1;rounded=1;sketch=0;fontColor=#143642;strokeColor=#A8201A;fillColor=#FAE5C7;curved=0;exitX=1;exitY=0.5;exitDx=0;exitDy=0;" edge="1" parent="1" source="kYSBQ5DufWiclOGldfe4-12">
          <mxGeometry width="50" height="50" relative="1" as="geometry">
            <mxPoint x="390" y="680" as="sourcePoint" />
            <mxPoint x="710" y="600" as="targetPoint" />
          </mxGeometry>
        </mxCell>
        <mxCell id="kYSBQ5DufWiclOGldfe4-33" value="" style="endArrow=none;html=1;rounded=1;sketch=0;fontColor=#143642;strokeColor=#A8201A;fillColor=#FAE5C7;curved=0;entryX=0;entryY=0.5;entryDx=0;entryDy=0;" edge="1" parent="1" target="kYSBQ5DufWiclOGldfe4-12">
          <mxGeometry width="50" height="50" relative="1" as="geometry">
            <mxPoint x="160" y="820" as="sourcePoint" />
            <mxPoint x="190" y="530" as="targetPoint" />
          </mxGeometry>
        </mxCell>
      </root>
    </mxGraphModel>
  </diagram>
</mxfile>
